<svg width="28" height="28" viewBox="0 0 28 28" fill="none" xmlns="http://www.w3.org/2000/svg">
<path d="M14 11.4331V23.3331M14 11.4331C14 9.47296 14 8.49328 14.3815 7.74459C14.717 7.08602 15.2521 6.55041 15.9106 6.21485C16.6593 5.83337 17.6396 5.83337 19.5998 5.83337H22.6331C23.2865 5.83337 23.6134 5.83337 23.863 5.96053C24.0825 6.07239 24.2605 6.25073 24.3724 6.47026C24.4996 6.71982 24.5 7.04676 24.5 7.70015V17.9668C24.5 18.6202 24.4996 18.9465 24.3724 19.196C24.2605 19.4155 24.0829 19.5945 23.8634 19.7063C23.6141 19.8334 23.2878 19.8334 22.6357 19.8334H19.3309C18.2351 19.8334 17.6863 19.8334 17.189 19.9844C16.7487 20.1181 16.3399 20.337 15.9845 20.6292C15.583 20.9592 15.2787 21.4151 14.6709 22.3268L14 23.3331M14 11.4331C14 9.47296 13.9998 8.49328 13.6183 7.74459C13.2828 7.08602 12.7473 6.55041 12.0887 6.21485C11.34 5.83337 10.3597 5.83337 8.39954 5.83337H5.36621C4.71282 5.83337 4.38645 5.83337 4.13688 5.96053C3.91736 6.07239 3.73901 6.25073 3.62716 6.47026C3.5 6.71982 3.5 7.04676 3.5 7.70015V17.9668C3.5 18.6202 3.5 18.9465 3.62716 19.196C3.73901 19.4155 3.91736 19.5945 4.13688 19.7063C4.3862 19.8334 4.71218 19.8334 5.36429 19.8334H8.66918C9.76493 19.8334 10.3127 19.8334 10.81 19.9844C11.2502 20.1181 11.661 20.337 12.0164 20.6292C12.4163 20.9579 12.7187 21.4114 13.3216 22.3157L14 23.3331" stroke="#FEC200" stroke-width="2" stroke-linecap="round" stroke-linejoin="round"/>
</svg>
