<svg width="28" height="28" viewBox="0 0 28 28" fill="none" xmlns="http://www.w3.org/2000/svg">
<path d="M19.145 9.7333C19.7278 10.2768 20.1931 10.9339 20.5122 11.6642C20.8312 12.3944 20.9972 13.1823 21 13.9792C21.0028 14.7761 20.8423 15.5651 20.5283 16.2975C20.2144 17.03 19.7537 17.6903 19.1747 18.2379M8.72705 17.9742L10.6815 20.3928C11.7003 21.6537 12.2098 22.2841 12.6561 22.3527C13.0424 22.4121 13.4329 22.2741 13.696 21.985C14 21.6511 14 20.8406 14 19.2196V8.77947C14 7.15845 14 6.34794 13.696 6.01405C13.4329 5.72501 13.0424 5.58697 12.6561 5.64638C12.2098 5.71501 11.7003 6.34541 10.6815 7.60623L8.72705 10.0249C8.52123 10.2796 8.41832 10.4069 8.29098 10.4986C8.17817 10.5797 8.05175 10.6401 7.9177 10.6768C7.76638 10.7183 7.60265 10.7183 7.27517 10.7183H5.61462C4.73239 10.7183 4.29127 10.7183 3.93478 10.8361C3.23323 11.0678 2.6829 11.6181 2.45114 12.3197C2.33337 12.6762 2.33337 13.1173 2.33337 13.9995C2.33337 14.8818 2.33337 15.3229 2.45114 15.6794C2.6829 16.3809 3.23323 16.9313 3.93478 17.163C4.29127 17.2808 4.73239 17.2808 5.61462 17.2808H7.27517C7.60265 17.2808 7.76638 17.2808 7.9177 17.3222C8.05175 17.3589 8.17817 17.4193 8.29098 17.5005C8.41832 17.5922 8.52123 17.7195 8.72705 17.9742Z" stroke="#FEC200" stroke-width="2" stroke-linecap="round" stroke-linejoin="round"/>
</svg>
